<svg xmlns="http://www.w3.org/2000/svg" xmlns:xlink="http://www.w3.org/1999/xlink" width="409" height="196" viewBox="0 0 409 196"><defs><style>.a{fill:#1b998b;opacity:0.5;}.b{clip-path:url(#a);}.c{fill:#e6e6e6;}.d{fill:#fff;}.e{fill:#faa916;}.f{fill:#3f3d56;}.g{opacity:0.1;}.g,.h{isolation:isolate;}.h{opacity:0.05;}.i{fill:#495867;}.j{fill:#ffb8b8;}.k{fill:#2f2e41;}</style><clipPath id="a"><rect class="a" width="409" height="196" rx="1" transform="translate(-79.89 162.285)"/></clipPath></defs><g class="b" transform="translate(79.89 -162.285)"><g transform="translate(15.277 162.167)"><rect class="c" width="193.867" height="126.558" transform="translate(0.083 0.112)"/><rect class="d" width="182.78" height="103.197" transform="translate(5.626 15.986)"/><rect class="e" width="193.867" height="8.395"/><ellipse class="d" cx="1.527" cy="1.556" rx="1.527" ry="1.556" transform="translate(4.594 2.736)"/><ellipse class="d" cx="1.527" cy="1.556" rx="1.527" ry="1.556" transform="translate(10.388 2.736)"/><ellipse class="d" cx="1.527" cy="1.556" rx="1.527" ry="1.556" transform="translate(16.182 2.736)"/><rect class="c" width="35.749" height="39.533" transform="translate(28.115 24.473)"/><rect class="c" width="35.749" height="39.533" transform="translate(79.141 24.473)"/><rect class="c" width="35.749" height="39.533" transform="translate(130.167 24.473)"/><rect class="c" width="35.749" height="39.533" transform="translate(28.115 71.162)"/><rect class="c" width="35.749" height="39.533" transform="translate(79.141 71.162)"/><rect class="c" width="35.749" height="39.533" transform="translate(130.167 71.162)"/><path class="d" d="M514.308,450.469l6.532-2.632L521.6,461s1.367,4.026.911,5.574c0,0,.3,2.632-.456,2.787a12.354,12.354,0,0,1-3.038.31c-.152-.155-.152-.619-.152-.619a4.305,4.305,0,0,0-1.671,2.323s-6.38,2.013-6.532.155,3.19-3.406,3.19-3.406l2.582-4.026Z" transform="translate(-426.527 -369.146)"/><path class="d" d="M567.5,450.469l6.532-2.632L574.8,461s1.367,4.026.911,5.574c0,0,.3,2.632-.456,2.787a12.354,12.354,0,0,1-3.038.31c-.152-.155-.152-.619-.152-.619a4.3,4.3,0,0,0-1.671,2.323s-6.38,2.013-6.532.155,3.19-3.406,3.19-3.406l2.582-4.026Z" transform="translate(-465.9 -369.146)"/><path class="f" d="M543.368,264.425s-1.391,3.961.221,5.747l-1.343,4.706s4.773,14.6,3.409,16.635c0,0-5.091,2.595-15.274-.927l4.137-16.357-.591-6.9.818-3.244,1.818-.185s-1.091,4.17.909,4.819S541.424,264,541.424,264Z" transform="translate(-441.124 -233.926)"/><path class="d" d="M333.183,289.314l1.755.732,8.377-11.222L345.947,292l1.755-.325c1.126-11.357,2.044-22.942.917-28.421l-6.5-.285-2.952,9.6-1.436,6.505Z" transform="translate(-295.168 -233.242)"/><path class="d" d="M736.627,263.7s-2.4,3.394-2.278,4.764,1.636,23.7,1.636,23.7l3.564.179L738.5,276.262l.876-4.347,2.162,20.247,4.382.119L742,266.02l-.76-2.322Z" transform="translate(-592.089 -233.779)"/><path class="f" d="M731.425,461.687a4.914,4.914,0,0,0-2.779-1.426,14.69,14.69,0,0,0-3.247-.636l-1.215-.987-3.733,1.976-2.1-1.456-.975.353a18.33,18.33,0,0,0-3.025.366c-.585.021-1.333.059-2.17.124-2.932.23-3.157,7.968-3.157,7.968a11.789,11.789,0,0,1,4.244-.906l.792,9.257a41.24,41.24,0,0,1,12.778,1.073l2.077-7.276,4.838-1.918S732.929,463.525,731.425,461.687Z" transform="translate(-573.349 -377.087)"/><path class="d" d="M343.123,446.536a4.049,4.049,0,0,0-2.29-1.175,12.1,12.1,0,0,0-2.675-.524l-1-.813-3.076,1.628-1.729-1.2-.8.29a15.1,15.1,0,0,0-2.493.3c-.482.018-1.1.048-1.788.1-2.415.189-2.6,6.566-2.6,6.566a9.712,9.712,0,0,1,3.5-.746l.653,18.67a33.98,33.98,0,0,1,10.529.884l1.712-17.038,3.986-1.58S344.362,448.052,343.123,446.536Z" transform="translate(-288.865 -366.344)"/><path class="c" d="M578.38,628.064,554.2,633.109l-.551-.057-21.252-2.186V603.414l26.015-4.483,18.871,2.243.007.122v.057Z" transform="translate(-394.052 -440.295)"/><path class="g" d="M638.912,634.628l-24.183,5.045-.551-.057V611.474l23.642-3.614Z" transform="translate(-454.585 -446.859)"/><path class="h" d="M577.288,601.354l-.007.007-23.635,3.55-21.252-1.5,26.015-4.483,18.871,2.243.007.122Z" transform="translate(-394.052 -440.295)"/><path class="d" d="M0,0,14.735.018l.009,7.049L.009,7.049Z" transform="matrix(0.998, 0.065, -0.065, 0.998, 141.268, 172.701)"/><path class="c" d="M0,0,7.819.01l0,2.452L0,2.452Z" transform="matrix(0.998, 0.065, -0.065, 0.998, 144.572, 175.224)"/><path class="i" d="M704.515,628.064l-24.183,5.045-.551-.057-21.252-2.186V603.414l26.015-4.483,18.871,2.243.007.122v.057Z" transform="translate(-487.411 -440.295)"/><path class="g" d="M765.047,634.628l-24.183,5.045-.551-.057V611.474l23.642-3.614Z" transform="translate(-547.944 -446.859)"/><path class="h" d="M703.423,601.354l-.007.007-23.635,3.55-21.252-1.5,26.015-4.483,18.871,2.243.007.122Z" transform="translate(-487.411 -440.295)"/><path class="d" d="M0,0,14.735.018l.009,7.049L.009,7.049Z" transform="matrix(0.998, 0.065, -0.065, 0.998, 174.044, 172.701)"/><path class="i" d="M0,0,7.819.01l0,2.452L0,2.452Z" transform="matrix(0.998, 0.065, -0.065, 0.998, 177.348, 175.225)"/><path class="j" d="M1074.509,342.4s4.267,11.235-3.556,11.235,12.089,11.235,19.912,4.712,3.2-6.886,3.2-6.886-10.311,1.087-9.956-8.336Z" transform="translate(-839.907 -291.634)"/><ellipse class="k" cx="12.575" cy="12.818" rx="12.575" ry="12.818" transform="translate(227.586 28.509)"/><path class="k" d="M1029.312,518.914,1015.8,554.432s-6.756,10.873-4.267,21.746,9.329,30.661,9.329,30.661,5.167,1.34,4.811-3.371.222-27.554-5.112-33.715l21.551-25.106.711,28.632s-1.422,13.047-1.067,18.846,1.067,15.584,1.067,15.584l4.267-.725s5.756-26.694,5.045-35.393c0,0,13.211-42.264-.3-52.412Z" transform="translate(-796.843 -421.398)"/><path class="k" d="M1044.145,840.014s-1.74-.452-1.94,1.175-3.86,8.859-.039,9.221,5.142-3.281,5.782-5.842.882-2.708,1.417-3.2,1.806-3.179.21-3.384a3.546,3.546,0,0,1-2.414-1.8S1046.658,840.667,1044.145,840.014Z" transform="translate(-818.64 -654.632)"/><path class="k" d="M1135.241,845.305s-3.226-.47-3,.7-.461,6.108,0,6.577,1.383,1.409,1.383,2.114.23,3.054,4.148,2.349a3.34,3.34,0,0,0,2.766-4.7c-.23-.47-3-2.819-2.766-4.228S1136.623,844.365,1135.241,845.305Z" transform="translate(-886.475 -661.18)"/><ellipse class="j" cx="8.71" cy="8.878" rx="8.71" ry="8.878" transform="translate(231.606 37.795)"/><path class="i" d="M1074.451,372.289s3.038,6.127-6.119,6.3a9.376,9.376,0,0,1-7.545-4.538c-.814-1.473-1.02.561-2.336.412-2.493-.282-5.157.772-7.54,2.064a1.545,1.545,0,0,0-.734,1.8c1.807,6.113,6.969,35.518,7.766,37.119,2.035,4.088,24.056-2.759,24.056-2.759.3-11.124-3.66-26.687,3.308-38.006A13.074,13.074,0,0,0,1074.451,372.289Z" transform="translate(-825.804 -313.371)"/><path class="k" d="M907.7,140.982l-6.382-3.407-8.812,1.394-1.823,8.208,4.539-.178,1.268-3.016v2.966l2.094-.082,1.215-4.8.76,5.111,7.445-.155Z" transform="translate(-659.242 -101.136)"/><ellipse class="k" cx="5.074" cy="5.172" rx="5.074" ry="5.172" transform="translate(235.749 21.538)"/><path class="k" d="M1084.659,231.287a5.144,5.144,0,0,1,4.3-5.112,5.037,5.037,0,0,0-5.028,2.3,5.256,5.256,0,0,0,0,5.619,5.037,5.037,0,0,0,5.028,2.3A5.144,5.144,0,0,1,1084.659,231.287Z" transform="translate(-850.235 -206.151)"/><path class="c" d="M883.881,478.785,859.7,483.83l-.551-.057L837.9,481.587V454.136l26.015-4.483,18.872,2.243.007.122v.057Z" transform="translate(-620.169 -330.555)"/><path class="g" d="M944.413,485.349l-24.183,5.045-.551-.057V462.2l23.642-3.614Z" transform="translate(-680.702 -337.119)"/><path class="h" d="M882.789,452.075l-.007.007-23.635,3.55-21.251-1.5,26.015-4.483,18.872,2.243.007.122Z" transform="translate(-620.169 -330.555)"/><path class="d" d="M0,0,14.735.018l.009,7.049L.009,7.049Z" transform="matrix(0.998, 0.065, -0.065, 0.998, 220.652, 133.162)"/><path class="c" d="M0,0,7.819.01l0,2.452L0,2.452Z" transform="matrix(0.998, 0.065, -0.065, 0.998, 223.956, 135.686)"/><path class="j" d="M1039.769,590.7s-8.889,7.249-4.978,9.786,8.533-9.786,8.533-9.786Z" transform="translate(-813.728 -474.171)"/><path class="i" d="M1042.6,387.828c-.461-.529-6.275,2.494-5.413,6.437l.406,27.32s-2.133,22.471,3.2,22.471,4.7.756,5.415-1.057.9-17.164.9-17.164Z" transform="translate(-816.17 -324.987)"/><path class="j" d="M1164.091,581.444s4.622,12.323,8.534,9.786-4.978-9.786-4.978-9.786Z" transform="translate(-910.166 -467.366)"/><path class="i" d="M1159.629,416.883s-2.215,15.045-1.5,16.858.082,1.057,5.415,1.057,3.2-22.471,3.2-22.471l.406-27.32c.862-3.943-4.952-6.965-5.413-6.437l-5.112,17.777Z" transform="translate(-904.638 -318.182)"/></g></g></svg>