<svg xmlns="http://www.w3.org/2000/svg" width="422.461" height="468.68" viewBox="0 0 422.461 468.68"><defs><style>.a{fill:none;stroke:#707070;}.b{fill:#faa917;}.c{fill:#e6e6e6;}</style></defs><g transform="translate(-206.633)"><path class="a" d="M852.753,517.811l160.006-150.69L822.433,252.575l30.319,126.546" transform="translate(-597.286 -126.875)"/><path class="a" d="M1012.759,366.934l37.121-224.676,97.3,133.41" transform="translate(-597.286 -126.875)"/><path class="a" d="M1165.306,403.054,1013.584,368.09l58.363,212.746,141.068-107.769" transform="translate(-598.11 -128.03)"/><circle class="b" cx="49.653" cy="49.653" r="49.653" transform="translate(367.302 187.296)"/><circle class="b" cx="15.744" cy="15.744" r="15.744" transform="translate(436.734 0)"/><circle class="b" cx="15.744" cy="15.744" r="15.744" transform="translate(239.332 374.217)"/><circle class="c" cx="15.744" cy="15.744" r="15.744" transform="translate(241.497 238.917)"/><circle class="c" cx="15.744" cy="15.744" r="15.744" transform="translate(535.91 132.842)"/><circle class="c" cx="15.744" cy="15.744" r="15.744" transform="translate(597.606 328.756)"/><circle class="b" cx="15.744" cy="15.744" r="15.744" transform="translate(551.785 259.167)"/><circle class="b" cx="15.744" cy="15.744" r="15.744" transform="translate(206.633 108.995)"/><circle class="b" cx="15.744" cy="15.744" r="15.744" transform="translate(459.744 437.192)"/></g></svg>