<svg xmlns="http://www.w3.org/2000/svg" xmlns:xlink="http://www.w3.org/1999/xlink" width="107.044" height="90.197" viewBox="0 0 107.044 90.197"><defs><style>.a{fill:#fff;}.b{fill:#faa917;}.c{fill:#3f3d56;}.d{fill:url(#a);}.e{fill:#feb9b9;}.f{fill:#2f2e41;}.g{opacity:0.1;}.h{fill:#efefef;}</style><linearGradient id="a" x1="0.505" y1="1.007" x2="0.505" gradientUnits="objectBoundingBox"><stop offset="0" stop-color="gray" stop-opacity="0.251"/><stop offset="0.54" stop-color="gray" stop-opacity="0.122"/><stop offset="1" stop-color="gray" stop-opacity="0.102"/></linearGradient></defs><g transform="translate(-290.032 -144.583)"><g transform="translate(358.924 181.932)"><circle class="a" cx="14.273" cy="14.273" r="14.273" transform="translate(5.107 6.797)"/><path class="b" d="M558.362,428.686a19.076,19.076,0,1,1-19.076-19.076A19.076,19.076,0,0,1,558.362,428.686Zm-21.28,10.1,14.15-14.15a1.229,1.229,0,0,0,0-1.741l-1.741-1.728a1.227,1.227,0,0,0-1.739,0l-11.541,11.541-5.389-5.4a1.235,1.235,0,0,0-1.741,0l-1.741,1.751a1.235,1.235,0,0,0,0,1.741l8,8a1.229,1.229,0,0,0,1.741,0Z" transform="translate(-520.21 -409.61)"/></g><g transform="translate(290.032 144.583)"><rect class="c" width="1.137" height="5.501" rx="0.569" transform="translate(51.781 10.097)"/><rect class="c" width="1.281" height="9.573" rx="0.641" transform="translate(51.74 20.169)"/><rect class="c" width="1.22" height="9.656" rx="0.61" transform="translate(51.761 33.092)"/><path class="d" d="M377.46,474.88a.21.21,0,0,0,.249.032A.883.883,0,0,1,377.46,474.88Z" transform="translate(-340.812 -416.255)"/><path class="e" d="M374.648,491l-.246,1.341-.19,1.026-.345,1.876-3.35,2.345s-.3-.258-.8-.666a58.364,58.364,0,0,0-6.377-4.668,7.136,7.136,0,0,0-1.753-.808Z" transform="translate(-328.571 -428.687)"/><path class="c" d="M363.05,482.922s3.906.67,4.135-1-2.01-2.569-3.908-2.682-13.287.67-13.287.67-2.009,2.679,5.247,3.128Z" transform="translate(-319.43 -419.611)"/><rect class="f" width="20.432" height="24.228" transform="translate(31.729 8.269)"/><rect class="g" width="20.432" height="24.228" transform="translate(31.729 8.379)"/><path class="e" d="M225.071,429.283a3.279,3.279,0,0,0-1.245.881,49.359,49.359,0,0,0-5.009,6.823c-3.771-4.492.4-8.04,2.18-9.26.432-.3.723-.458.723-.458Z" transform="translate(-217.289 -379.538)"/><path class="e" d="M381.189,288.22s1.005,7.034,4.466,8.708-4.466,4.8-4.466,4.8l-10.829-4.022s6.141-2.01,4.912-7.928Z" transform="translate(-335.336 -272.304)"/><path class="e" d="M322.881,473.16l-.245,1.336-.2,1.03-.345,1.876-3.35,2.343s-.3-.256-.8-.663a58.117,58.117,0,0,0-6.38-4.668,7.092,7.092,0,0,0-1.753-.808Z" transform="translate(-288.64 -414.929)"/><path class="f" d="M310.7,465.734s3.505.025,3.716-1.648-1.91-2.569-3.716-2.682-12.778.723-12.778.723-1.557,3.159,5.345,3.607Z" transform="translate(-279.357 -405.855)"/><path class="c" d="M370.586,492.08c-.153-.075-.307-.153-.458-.229l-.412-.519-5.4-6.85v.119c-.037,1.144-.425,10.21-3.46,11.047-3.238.892-7.143,1.117-8.924-4.912s-5.034-19.2-8.374-19.986l4.97-4.075a29.771,29.771,0,0,1,4.631,7.532c-.05-.229-2.322-10.845-.458-12.724H369s2.517,7.169,4.242,10.72c1.343,2.757,3.359,9.276,4.657,13.687A5.237,5.237,0,0,1,370.586,492.08Z" transform="translate(-314.666 -405.923)"/><path class="g" d="M398.375,417.541c-2.517,1.49-13.566.883-17.161.641l-.979-.071c-.105,0,.016-.059.016-.059l.1-1.014,2.679-6.809,14.346-8.319a12.486,12.486,0,0,0-.364,3.753A87.127,87.127,0,0,0,398.375,417.541Z" transform="translate(-342.918 -359.98)"/><path class="h" d="M397.971,416.1c-2.517,1.49-13.566.883-17.161.641l-.979-.069-.162-.014.178-.046.883-.229,1.9-7.592,14.346-8.317a12.494,12.494,0,0,0-.364,3.753A87.092,87.092,0,0,0,397.971,416.1Z" transform="translate(-342.515 -358.871)"/><path class="g" d="M397.118,404.218c-2.917.673-9.338,2.646-11.8,7.413-1.645,3.174-3.029,4.535-3.995,5.1l-.979-.069a.557.557,0,0,0,.016-.059l.883-.229,1.9-7.592,14.346-8.317A12.55,12.55,0,0,0,397.118,404.218Z" transform="translate(-343.032 -358.871)"/><path class="g" d="M234.224,427.29l3.35,2.009a3.278,3.278,0,0,0-1.245.881c-.279-.815-2.031-1.952-2.828-2.437C233.933,427.452,234.224,427.29,234.224,427.29Z" transform="translate(-229.792 -379.554)"/><path class="g" d="M376.959,471.722a.2.2,0,0,1-.229-.032A.8.8,0,0,0,376.959,471.722Z" transform="translate(-340.249 -413.795)"/><path class="b" d="M273.85,266.776a6.639,6.639,0,0,1-5.137-1.9s-8.924,2.569-11.946,8.374S233.2,290.446,233.2,290.446s3.574,2.009,3.238,3.013l13.511-7.816s4.8-3.46,6.139-4.242,8.711-5.583,10.273,7.48,0,11.5,0,11.5,2.233.783,5.471-5.471,13.285-7.7,13.285-7.7l.558-6.585s1.993-4.366.458-6.178a3.89,3.89,0,0,1-.895-1.89c-.254-1.673,0-4.459,3.556-6.775,5.471-3.574,7.592-6.475,7.592-6.475s.112-2.123-3.238-3.128-16.971-6.475-16.971-6.475l-.458,1.9,10.747,7.585s-5.359,4.347-9.61,4.242C276.856,263.426,277.646,266.664,273.85,266.776Z" transform="translate(-229.559 -242.598)"/><path class="g" d="M397.42,292.407a21.8,21.8,0,0,1-.618-2.727l-5.917,1.563a6.487,6.487,0,0,1-.135,3.414A6.363,6.363,0,0,0,397.42,292.407Z" transform="translate(-351.061 -273.43)"/><circle class="e" cx="6.363" cy="6.363" r="6.363" transform="translate(35.081 8.381)"/><path class="g" d="M428.67,507.07s3.684,7.258,2.567,9.489" transform="translate(-380.305 -441.08)"/><path class="f" d="M354.843,218.708a45.1,45.1,0,0,1,5.183,1.373,2.572,2.572,0,0,0,1.341.05c.675-.208,1.224-.915,1.924-.895a2.133,2.133,0,0,1,1.167.588,14.35,14.35,0,0,1,1.6,1.428c1.2,1.3,1.943,3.055,3.036,4.471s2.653,3.077,4.207,2.428a8.981,8.981,0,0,1-8.1,6.951c-1.494.1-3.025-.208-4.471.229a3.874,3.874,0,0,1-1.128.274c-.833,0-1.5-.764-2.023-1.508-1.217-1.748-2.18-3.732-3.551-5.327a2.92,2.92,0,0,0-1.627-1.126,3.012,3.012,0,0,0-1.8.506,8.439,8.439,0,0,0-2.631,1.831,3.642,3.642,0,0,0-.888,3.2,7.473,7.473,0,0,1,.54,1.794c.014,1.016-.883,1.757-1.059,2.746a10.286,10.286,0,0,0-.043,1.249,5.123,5.123,0,0,1-1.887,3.315,2.38,2.38,0,0,0-.865,1.2c-.071.35,0,.718-.046,1.073A1.947,1.947,0,0,1,341.938,246a5.155,5.155,0,0,1-2.682-.318,3.092,3.092,0,0,0,1.5-3.279c-.345-1.812-2.167-3.114-2.01-4.958a5.745,5.745,0,0,1,.5-1.631,14.947,14.947,0,0,0,.86-3.091,5.208,5.208,0,0,0-.053-2.464,7.659,7.659,0,0,0-1.112-1.874,10.656,10.656,0,0,1-1.288-2.638,1.856,1.856,0,0,1-.123-.874,1.8,1.8,0,0,1,.561-.9,7.371,7.371,0,0,1,3.393-2.432,7.638,7.638,0,0,1,1.927-.073,22.738,22.738,0,0,0,3.347-.142c.915-.107,2.462-.094,3.238-.686.723-.554,1.13-1.249,2.02-1.6a5.949,5.949,0,0,1,2.823-.323Z" transform="translate(-310.015 -218.66)"/></g></g></svg>