<svg xmlns="http://www.w3.org/2000/svg" width="248.66" height="172.193" viewBox="0 0 248.66 172.193"><defs><style>.a{fill:#ffb8b8;}.b{fill:#e6e6e6;}.c{fill:#fff;}.d{fill:#faa917;}.e{fill:#2f2e41;}.f{fill:#faa916;}.g{fill:#3f3d56;}</style></defs><g transform="translate(0)"><path class="a" d="M832.084,465.687l-2.93,3.995a2.828,2.828,0,0,1-3.565.847h0a2.828,2.828,0,0,1-.274-4.878l3.736-2.469L839.733,452.5l1.187-3.825h8.045l-4.22,9.1Z" transform="translate(-631.838 -362.979)"/><path class="b" d="M556.693,504.065a1.4,1.4,0,0,0-1.4,1.4v66.5a1.4,1.4,0,0,0,1.4,1.4h89.784a1.4,1.4,0,0,0,1.4-1.4v-66.5a1.4,1.4,0,0,0-1.4-1.4Z" transform="translate(-444.505 -401.588)"/><path class="c" d="M568.162,578.3h84.791V516.591H568.162Z" transform="translate(-453.477 -410.32)"/><path class="b" d="M686.9,574.912H635.832a1.824,1.824,0,1,0,0,3.647H686.9a1.824,1.824,0,0,0,0-3.647Z" transform="translate(-499.375 -450.971)"/><path class="b" d="M635.832,611.956a1.824,1.824,0,1,0,0,3.647H686.9a1.824,1.824,0,0,0,0-3.647Z" transform="translate(-499.375 -476.792)"/><path class="b" d="M635.832,649a1.824,1.824,0,1,0,0,3.648H686.9a1.824,1.824,0,0,0,0-3.648Z" transform="translate(-499.375 -502.613)"/><circle class="d" cx="2.245" cy="2.245" r="2.245" transform="translate(124.533 123.66)"/><circle class="b" cx="2.245" cy="2.245" r="2.245" transform="translate(124.533 134.883)"/><circle class="b" cx="2.245" cy="2.245" r="2.245" transform="translate(124.533 146.106)"/><path class="d" d="M666.556,576.735h0a1.824,1.824,0,0,1-1.824,1.824H635.9a1.868,1.868,0,0,1-1.874-1.581,1.827,1.827,0,0,1,1.808-2.066h28.9A1.824,1.824,0,0,1,666.556,576.735Z" transform="translate(-499.375 -450.971)"/><circle class="b" cx="7.295" cy="7.295" r="7.295" transform="translate(149.785 80.03)"/><circle class="c" cx="3.647" cy="3.647" r="3.647" transform="translate(153.432 83.678)"/><path class="a" d="M938.585,632.95l-3.693,1.715L929.28,624c-3.464-5.307-5.725-11.667-7.313-18.616l5.8.4c3.455,4.931,6.015,9.875,6.84,14.843Z" transform="translate(-700.093 -472.213)"/><path class="e" d="M738.426,413.367h-7.385V400.574l5.935-1.055Z" transform="translate(-509.562 -278.479)"/><path class="d" d="M888.589,417.113a36.389,36.389,0,0,0-10.92-.411l2.135-10.645a4.982,4.982,0,0,1,4.24-3.961h0a4.982,4.982,0,0,1,5.6,5.486Z" transform="translate(-669.215 -330.483)"/><circle class="a" cx="6.199" cy="6.199" r="6.199" transform="translate(207.961 52.394)"/><path class="a" d="M904.242,366.86l-8.177,5.8L893.89,362.31l6.133-2.44A10,10,0,0,0,904.242,366.86Z" transform="translate(-680.522 -301.079)"/><path class="e" d="M886.948,335.97c-.458-.945-1.032-.289-1.542.863l-.731-2.926-.878-.293-.585-2.34c-2.684-.641-4.837.7-7.606,2.189l-1.055,2.506h0a6.36,6.36,0,0,1,4.285-9,6.678,6.678,0,0,1,1.4-.162h0a6.643,6.643,0,0,1,6.709,6.851Z" transform="translate(-666.59 -278.037)"/><path class="e" d="M945.983,695.548l-12.618,4.116a1.919,1.919,0,0,1-2.148-1.082h0a1.92,1.92,0,0,1,.665-2.378c2.489-1.7,4.472-3.521,5.381-5.581.841-3.415,1.791-3.423,2.823-.875,2.851,1.687,2.391.336,4.166-1.763l2.738,5.182a1.669,1.669,0,0,1-1.008,2.381Z" transform="translate(-706.421 -529.754)"/><path class="a" d="M872.209,644.939l-4.22-1.846,1.513-10.812,2.971-21.236,8.045,1.055a49.12,49.12,0,0,1-5.36,21.184Z" transform="translate(-662.468 -476.158)"/><path class="e" d="M895.028,558.815l-13.98-2.77,3.693-19.387-.659-5.275h18.332C901.744,538.213,898.554,548.3,895.028,558.815Z" transform="translate(-671.57 -420.63)"/><path class="f" d="M905.341,425.209c-6.767-1.713-13.423-1.955-19.914,0a185.994,185.994,0,0,1-.486-35.454,10.232,10.232,0,0,1,3.588-6.854l7.712-6.49,5.727,2.863a4.537,4.537,0,0,1,2.507,3.964C905.725,399.885,906.683,415.725,905.341,425.209Z" transform="translate(-673.839 -312.609)"/><path class="a" d="M951.065,459.813l1.153,4.035a3.084,3.084,0,0,1-2.484,3.894h0a3.084,3.084,0,0,1-3.539-3.448l.519-3.954-2.77-20.046-3.693-7.913,7.385-3.3,3.033,9.891Z" transform="translate(-712.837 -349.324)"/><path class="e" d="M844.775,710.182l-12.924-3.018a1.919,1.919,0,0,1-1.276-2.039h0a1.92,1.92,0,0,1,1.8-1.689c3.011-.168,5.649-.694,7.494-1.985,2.489-2.485,3.305-2,2.868.715,1.565,2.92,1.871,1.526,4.477.651l-.344,5.851a1.669,1.669,0,0,1-2.1,1.515Z" transform="translate(-636.379 -538.046)"/><path class="f" d="M938.964,403.647c-3.123.257-6.529,2.066-10.023,4.352l-2.68-10.521a4.982,4.982,0,0,1,2.11-5.405h0a4.982,4.982,0,0,1,7.418,2.526Z" transform="translate(-702.978 -322.964)"/><path class="b" d="M191.011,240.618a1.392,1.392,0,0,0-1.39,1.39v65.9a1.392,1.392,0,0,0,1.39,1.39h88.978a1.392,1.392,0,0,0,1.39-1.39v-65.9a1.392,1.392,0,0,0-1.39-1.39Z" transform="translate(-189.62 -217.957)"/><path class="c" d="M201.12,313.83h84.791V252.118H201.12Z" transform="translate(-197.636 -225.972)"/><path class="b" d="M224.468,348.243a1.807,1.807,0,1,0,0,3.615h68.124a1.807,1.807,0,0,0,0-3.615Z" transform="translate(-212.651 -292.975)"/><path class="b" d="M224.468,384.955a1.807,1.807,0,0,0,0,3.615h68.124a1.807,1.807,0,0,0,0-3.615Z" transform="translate(-212.651 -318.565)"/><path class="d" d="M324.966,423.5a1.807,1.807,0,0,0,0,3.615H332.2a1.807,1.807,0,0,0,0-3.615Z" transform="translate(-282.702 -345.433)"/><path class="d" d="M307.8,272.493a.557.557,0,0,0-.556.556v14.117a.557.557,0,0,0,.556.556h19.375a.557.557,0,0,0,.556-.556V273.049a.557.557,0,0,0-.556-.556Z" transform="translate(-271.609 -240.174)"/><circle class="c" cx="3.059" cy="3.059" r="3.059" transform="translate(42.821 35.313)"/><path class="c" d="M334.544,311.134a3.035,3.035,0,0,1-.334,1.39h-9.343a3.058,3.058,0,0,1,2.725-4.449h3.893a3.057,3.057,0,0,1,3.059,3.059Z" transform="translate(-283.659 -264.977)"/><circle class="c" cx="3.059" cy="3.059" r="3.059" transform="translate(42.821 35.313)"/><path class="c" d="M334.544,311.134a3.035,3.035,0,0,1-.334,1.39h-9.343a3.058,3.058,0,0,1,2.725-4.449h3.893a3.057,3.057,0,0,1,3.059,3.059Z" transform="translate(-283.659 -264.977)"/><circle class="b" cx="7.229" cy="7.229" r="7.229" transform="translate(38.65 0)"/><circle class="d" cx="3.615" cy="3.615" r="3.615" transform="translate(42.265 3.615)"/><path class="g" d="M420.209,566.175H246.283v-.661H420.328Z" transform="translate(-171.668 -394.184)"/></g></svg>