<svg xmlns="http://www.w3.org/2000/svg" xmlns:xlink="http://www.w3.org/1999/xlink" width="280.307" height="219.035" viewBox="0 0 280.307 219.035"><defs><style>.a{fill:#faa917;}.b{fill:#3c354c;}.c{fill:rgba(63,61,86,0.43);}.d{fill:rgba(250,169,23,0.5);}.e{fill:url(#a);}.f{fill:#192534;}.g{fill:#ffc1c7;}.h,.n{opacity:0.1;}.i{fill:#f2f2f2;}.j{fill:#495867;}.k{fill:#3f3d56;}.l{fill:#a0616a;}.m{fill:#1b998b;}</style><linearGradient id="a" x1="-9.497" y1="1" x2="-9.497" gradientUnits="objectBoundingBox"><stop offset="0" stop-color="gray" stop-opacity="0.251"/><stop offset="0.54" stop-color="gray" stop-opacity="0.122"/><stop offset="1" stop-color="gray" stop-opacity="0.102"/></linearGradient></defs><circle class="a" cx="2.424" cy="2.424" r="2.424" transform="translate(4.005 0)"/><circle class="a" cx="2.424" cy="2.424" r="2.424" transform="translate(11.97 0)"/><circle class="a" cx="2.424" cy="2.424" r="2.424" transform="translate(19.935 0)"/><rect class="b" width="223.049" height="0.285" transform="translate(0 8.164)"/><rect class="c" width="88.619" height="108.898" transform="translate(4.005 25.578)"/><rect class="d" width="88.619" height="108.895" transform="translate(130.425 55.369)"/><path class="e" d="M698.725,331.367c.285-.815.732-1.572.96-2.4a9.128,9.128,0,0,0,.063-3.441,2.934,2.934,0,0,0-.416-1.424c-.387-.53-1.065-.749-1.587-1.139-1.271-.954-1.447-2.72-1.891-4.236a10.218,10.218,0,0,0-3.319-5c-1-.812-2.419-1.444-3.544-.815-.476.265-.823.726-1.31.969a4.063,4.063,0,0,1-2.077.179,1.029,1.029,0,0,0-.33-.262,3.94,3.94,0,0,0-2.584.322,2.416,2.416,0,0,0-1.273,1.071,2.007,2.007,0,0,0-.14.4c-.085.342-.114.7-.219,1.043a2.949,2.949,0,0,1-.356.724c-.424.63-1.048,1.157-1.478,1.8a4.143,4.143,0,0,0-.479.969h0a8.41,8.41,0,0,0-.35,3.116,14.9,14.9,0,0,1-.117,4.23c-.108.424-.262.855-.39,1.265-.023.068-.048.142-.068.211l-.051.205c-.023.1-.046.2-.063.3h0c-.034.205-.054.413-.068.624v.313a5.205,5.205,0,0,1-.026.632,4.722,4.722,0,0,1-.125.932,4.109,4.109,0,0,1-.4.983h0c-.2.353-.427.687-.655,1.017l-.763,1.108a4.529,4.529,0,0,0-2.6.379,3.419,3.419,0,0,0-1.484,1.931.571.571,0,0,0-.174.1,3.134,3.134,0,0,0-.493,1.194v.014c-.336,1.222-.641,2.96-.741,3.347-.228.855-.407,1.746-.57,2.629-.325,1.809-.547,3.635-.855,5.447-.063.37-.47,2.823-.872,4.23a.342.342,0,0,1-.028.105c-.157.524-.308.88-.439.88h.4c-.071.168-.14.342-.2.516a10.723,10.723,0,0,0-.322,1.094.084.084,0,0,0,0,.023,21.61,21.61,0,0,0-.476,3.47,142.083,142.083,0,0,0-.057,20.425,10.427,10.427,0,0,0,.51,2.965,4.311,4.311,0,0,0,.8,1.336l.051.057c-.031.137-.06.268-.094.4q-1.424,6.3-3.333,12.483c-.029.088-.054.179-.085.268-.077.256-.157.516-.236.772-.048.165-.1.33-.145.5-.034.108-.063.216-.091.319a14.627,14.627,0,0,0-.459,2.279,15.048,15.048,0,0,0,.234,4.273h9.076c0-.063-.017-.122-.023-.185a8.414,8.414,0,0,1,.014-3.806,12.311,12.311,0,0,1,1.165-2.176c.855-1.473,1.333-3.134,2.111-4.635,1.139-2.193,2.88-4.1,3.683-6.409q.128-.365.222-.743a18.9,18.9,0,0,1,.652,5.036,63.028,63.028,0,0,0,2.125,12.919h9.164c-.151-2.4-.365-4.8-.5-7.19a18.628,18.628,0,0,1,.077-3.925,20.237,20.237,0,0,1,.718-2.8,51.244,51.244,0,0,0,2.47-10.1c.342-3.453.587-8.329-1.313-11.246a.955.955,0,0,0-.123-.157,2.613,2.613,0,0,0,0-.789c-.516-4.749-3.233-9.307-2.447-14.021a17.9,17.9,0,0,1,1.114-3.6,64.775,64.775,0,0,0,3.151-8.953,13.71,13.71,0,0,0,.667-2.626,14.594,14.594,0,0,0,.217-2.39,5.583,5.583,0,0,0-.077-.909,15.185,15.185,0,0,0,2.886,1.108,2.508,2.508,0,0,0,.259.023.377.377,0,0,1-.034-.057,1.252,1.252,0,0,1-.191-.621,1.916,1.916,0,0,0,.541.043h0a2.071,2.071,0,0,0,1.006-.31A6.327,6.327,0,0,1,698.725,331.367Zm-27.632,42.6c-.154.325-.285.652-.427.988v-.037a7.857,7.857,0,0,1-.265-4.125c.023-.085.043-.171.063-.254s.057-.216.085-.328a3.025,3.025,0,0,0,1.507,1.994c-.083.134-.165.265-.245.4a15.217,15.217,0,0,0-.732,1.362Zm1.273-9.42c-.256.507-.57.983-.88,1.47a61.412,61.412,0,0,0,.94-7.6h0c.026-.413.046-.829.063-1.242a17.653,17.653,0,0,1,.4,2.9,9.107,9.107,0,0,1-.231,3.809,4.971,4.971,0,0,1-.308.664Z" transform="translate(-505.333 -242.259)"/><path class="f" d="M709.145,319.313a2.372,2.372,0,0,0-1.256,1.063,10.2,10.2,0,0,0-.35,1.424c-.308.991-1.231,1.644-1.8,2.507a6.956,6.956,0,0,0-.818,4.071,15.58,15.58,0,0,1-.117,4.2c-.165.664-.45,1.3-.57,1.974-.14.82-.023,1.678-.225,2.484a6.414,6.414,0,0,1-1.046,1.994l-1.82,2.666a20.842,20.842,0,0,0,2.4-.726,4.318,4.318,0,0,1-1.3,1.968l1.316-1.6a3.743,3.743,0,0,1,.98-.929,4.957,4.957,0,0,1,1.6-.427,3.738,3.738,0,0,0,2.6-1.686c.681-1.251.245-2.823.627-4.2a15.956,15.956,0,0,1,1.439-2.755c1.077-2.091,1.011-4.558,1.347-6.885a21.372,21.372,0,0,0,.37-2.971c0-.738-.074-2.142-.855-2.515A3.845,3.845,0,0,0,709.145,319.313Z" transform="translate(-532.175 -246.701)"/><path class="f" d="M693.977,525.271a52.411,52.411,0,0,1-2.427,10.039,19.579,19.579,0,0,0-.706,2.78,18.8,18.8,0,0,0-.077,3.9c.128,2.307.33,4.62.476,6.931H682.19a63.523,63.523,0,0,1-2.031-12.622,21.558,21.558,0,0,0-.516-4.589c-.037-.14-.08-.285-.125-.419-.638,2.629-2.612,4.7-3.837,7.122-.766,1.5-1.242,3.133-2.074,4.606a11.716,11.716,0,0,0-1.139,2.162,8.38,8.38,0,0,0-.017,3.752h-8.939a14.7,14.7,0,0,1-.2-4.028,16.115,16.115,0,0,1,.618-2.849c.046-.168.1-.333.145-.5.08-.256.159-.516.236-.772q1.934-6.333,3.373-12.819c.028-.134.06-.285.088-.407q.245-1.111.473-2.225a45.941,45.941,0,0,1,1.966-7.589c.06-.145.117-.285.179-.436.134-.322.285-.641.436-.951a14.189,14.189,0,0,1,.746-1.33,12.406,12.406,0,0,1,.84-1.182c5.005-.433,10.2-2.931,15.1-1.772a7.169,7.169,0,0,1,2.3.94c.838.541,2.134.225,2.769.917a1.341,1.341,0,0,1,.12.157C694.553,516.99,694.313,521.839,693.977,525.271Z" transform="translate(-505.084 -384.656)"/><path class="g" d="M707.513,368.38c-.108,1.225-.365,2.666-1.478,3.179a7.5,7.5,0,0,1-2.048.285,4.284,4.284,0,0,0-2.954,2.367,10.641,10.641,0,0,0-.943,3.789,7.278,7.278,0,0,0,.664,4.771,5.5,5.5,0,0,0,3.256,2.134,9.082,9.082,0,0,0,7.583-1.407,17.042,17.042,0,0,0,2.792-2.758c1.857-2.162,3.729-4.532,4.108-7.358a.922.922,0,0,0-.222-.9.969.969,0,0,0-.6-.117l-1.783.031a1.238,1.238,0,0,1-1.552-1.524l.137-5.165a.73.73,0,0,0-.117-.521.681.681,0,0,0-.41-.177,28.859,28.859,0,0,1-2.968-.268c-.914-.251-2.347-1.3-3.02-.222C707.4,365.454,707.607,367.34,707.513,368.38Z" transform="translate(-531.349 -279.009)"/><path class="h" d="M707.513,368.38c-.108,1.225-.365,2.666-1.478,3.179a7.5,7.5,0,0,1-2.048.285,4.284,4.284,0,0,0-2.954,2.367,10.641,10.641,0,0,0-.943,3.789,7.278,7.278,0,0,0,.664,4.771,5.5,5.5,0,0,0,3.256,2.134,9.082,9.082,0,0,0,7.583-1.407,17.042,17.042,0,0,0,2.792-2.758c1.857-2.162,3.729-4.532,4.108-7.358a.922.922,0,0,0-.222-.9.969.969,0,0,0-.6-.117l-1.783.031a1.238,1.238,0,0,1-1.552-1.524l.137-5.165a.73.73,0,0,0-.117-.521.681.681,0,0,0-.41-.177,28.859,28.859,0,0,1-2.968-.268c-.914-.251-2.347-1.3-3.02-.222C707.4,365.454,707.607,367.34,707.513,368.38Z" transform="translate(-531.349 -279.009)"/><circle class="g" cx="6.808" cy="6.808" r="6.808" transform="translate(173.841 75.421)"/><path class="i" d="M695.313,396.538a3.1,3.1,0,0,1-2.874-1.251,3.836,3.836,0,0,1-.234-2.213l.4-4.193a5.255,5.255,0,0,0-3.151.322c-1.236.7-1.684,2.256-1.823,3.672-.259,2.658.162,5.341.017,8.008-.122,2.245-.638,4.558.02,6.694.285.894.746,1.709,1.045,2.607a14.525,14.525,0,0,1,.57,3.507,9.142,9.142,0,0,1-.225,3.786,22.386,22.386,0,0,1-1.544,2.8c-.812,1.561-.986,3.663.234,4.931,1.114,1.159,2.963,1.208,4.527.855a27.486,27.486,0,0,1,4.669-1.139c2.832-.12,5.355,1.709,8.127,2.313a2.463,2.463,0,0,0,1.139.04,2.771,2.771,0,0,0,.912-.5l1.515-1.088a2.1,2.1,0,0,0,.732-.743,1.947,1.947,0,0,0,.094-1.063c-.507-4.72-3.179-9.255-2.407-13.941a18.211,18.211,0,0,1,1.1-3.578c1.923-4.917,4.227-10.027,3.481-15.255a5.806,5.806,0,0,0-1.3-3.2,2.767,2.767,0,0,0-3.179-.735c-1.034.547-1.407,1.766-1.854,2.829a13.015,13.015,0,0,1-4.054,5.207,5.087,5.087,0,0,1-2.641,1.339C697.529,396.589,696.407,396.518,695.313,396.538Z" transform="translate(-521.967 -295.38)"/><path class="g" d="M675.473,455.341c-1.649,1.832-1.974,4.47-2.156,6.931a143.327,143.327,0,0,0-.054,20.305,10.307,10.307,0,0,0,.5,2.948,3.667,3.667,0,0,0,1.94,2.179,1.341,1.341,0,0,0,1.709-.407c.248-.536-.12-1.139-.4-1.649a6,6,0,0,1-.6-3.9,1.813,1.813,0,0,1,.553,1.1l.533,2.279c.732-.108,1.006-1,1.122-1.729a7.131,7.131,0,0,0-.111-3.954c-.285-.655-.755-1.214-1.037-1.866a8.163,8.163,0,0,1-.536-5.261,61.565,61.565,0,0,0,1.994-17.946A7.629,7.629,0,0,1,675.473,455.341Z" transform="translate(-512.001 -343.606)"/><path class="i" d="M676.39,419.416a25.117,25.117,0,0,1,6.022.795,13.046,13.046,0,0,0,0-3.911l-.855-8.95c-.063-.667.057-6.751-1.225-5.677-.473.4-1.068,3.957-1.216,4.529-.222.855-.4,1.735-.57,2.612-.319,1.8-.538,3.615-.855,5.412C677.618,414.75,676.849,419.419,676.39,419.416Z" transform="translate(-514.476 -305.829)"/><path class="f" d="M733.02,317.748a1.173,1.173,0,0,1,.14-.61,1.031,1.031,0,0,1,.729-.387c.983-.151,2.06.245,2.948-.205.481-.242.82-.7,1.291-.963,1.105-.624,2.5,0,3.481.812a10.139,10.139,0,0,1,3.265,4.971c.433,1.5.61,3.262,1.857,4.21.516.393,1.182.61,1.558,1.139a2.908,2.908,0,0,1,.413,1.424,9.186,9.186,0,0,1-.063,3.418c-.225.826-.669,1.578-.943,2.39a6.335,6.335,0,0,0,1.729,6.6,2.034,2.034,0,0,1-1.524.265,1.313,1.313,0,0,0,.222.672c-1.6-.048-2.98-1.6-4.538-1.262-1.188.256-1.852,1.487-2.74,2.319a4.113,4.113,0,0,1-4.356.889,3.169,3.169,0,0,1-1.709-3.9c.692-1.649,2.832-2.3,3.575-3.928.57-1.262.148-2.732.271-4.113a19.824,19.824,0,0,1,.937-3.435,4.266,4.266,0,0,0-.228-3.453,5.623,5.623,0,0,0-3.208-1.863C733.439,321.85,732.918,320.485,733.02,317.748Z" transform="translate(-554.966 -244.173)"/><path class="g" d="M726.405,382.649a5.229,5.229,0,0,1-.043-2.869c.635-1.692,2.718-2.219,4.159-3.307a5.629,5.629,0,0,0,1.852-2.467c.262-.689.285-1.632-.348-1.994a1.538,1.538,0,0,0-.8-.14,10.086,10.086,0,0,0-6.022,2.715,8.185,8.185,0,0,0-2.453,3.011,10.022,10.022,0,0,0-.57,2.706l-.35,3.054a46.567,46.567,0,0,0-.407,5.267,23.726,23.726,0,0,0,.188,3.017,4.4,4.4,0,0,0,.641,2.028c.778,1.085,2.279,1.327,3.606,1.365a6.22,6.22,0,0,0,1.51-.094c2.216-.481,3.9-3.589,2.222-5.509-.715-.815-1.786-.835-2.191-1.954A33.426,33.426,0,0,1,726.405,382.649Z" transform="translate(-546.678 -284.604)"/><path class="i" d="M740.3,399.608l-1.752,2.863a1.288,1.288,0,0,0-.214.493,1.522,1.522,0,0,0,.45,1.006c1.51,2.06,1.139,4.9.672,7.406a13.44,13.44,0,0,0,9.244-10.888c.222-1.5.57-3.962-.752-4.937C744.751,393.207,741.8,397.161,740.3,399.608Z" transform="translate(-558.772 -301.031)"/><path class="f" d="M704.811,376.435a7.814,7.814,0,0,0,2.048-.285c1.114-.513,1.37-1.954,1.478-3.179,0-.111.017-.236.02-.367a9.915,9.915,0,0,0-1.293-1.139,6.48,6.48,0,0,0-1.325-.57l-1.214-.444a7.163,7.163,0,0,0-.285,1.011c-.14.82-.023,1.678-.225,2.484a6.414,6.414,0,0,1-1.045,1.994l-1.82,2.666c.33-.08.655-.168.983-.262a4.1,4.1,0,0,1,2.678-1.909Z" transform="translate(-532.183 -283.592)"/><path class="g" d="M843.85,522.976s-11.859-5.8-9.58-1.387,9.58,4.914,9.58,4.914Z" transform="translate(-627.173 -390.491)"/><path class="f" d="M719.379,450.46l-.379.758,8.956,4.666.379-.755Z" transform="translate(-514.182 -322.14)"/><path class="a" d="M873.13,529.1s-.758,1.894-3.658.758a13.533,13.533,0,0,0-5.173-1.008s-1.892,3.783,0,5.17,9.839,3.786,10.093,2.4S873.13,529.1,873.13,529.1Z" transform="translate(-648.255 -396.869)"/><path class="h" d="M873.13,529.1s-.758,1.894-3.658.758a13.533,13.533,0,0,0-5.173-1.008s-1.892,3.783,0,5.17,9.839,3.786,10.093,2.4S873.13,529.1,873.13,529.1Z" transform="translate(-648.255 -396.869)"/><circle class="j" cx="7.948" cy="7.948" r="7.948" transform="translate(222.793 94.322)"/><path class="a" d="M897.19,469.99V468.6s1.891-2.4,4.036-.755-1.139,7.315-1.139,7.315l-2.382-1.387Z" transform="translate(-672.378 -352.834)"/><path class="g" d="M915.749,803.1l-2.4,2.777s4.29,1.008,4.415,1.14,4.415-.379,4.415-.379l-.385-4.421Z" transform="translate(-683.934 -592.366)"/><path class="g" d="M953.65,788.728l1.14,4.794,4.92-1.139,2.524-3.911a7.728,7.728,0,0,1-2.279-2.524C959.441,784.685,953.65,788.728,953.65,788.728Z" transform="translate(-712.754 -580.554)"/><path class="k" d="M929.571,652.4l-.5,8.2a6.355,6.355,0,0,0-.379,4.29c.63,2.4.379,12.488.379,12.488s-.883,13.876-1.139,14.759-1.14,1.262-.5,2.02c0,0-8.452,1.891-8.327-1.262a10.447,10.447,0,0,0,1.139-4.162c0-2.017.379-13.121.379-13.121l3.025-28.384Z" transform="translate(-688.043 -481.527)"/><path class="h" d="M929.571,652.4l-.5,8.2a6.355,6.355,0,0,0-.379,4.29c.63,2.4.379,12.488.379,12.488s-.883,13.876-1.139,14.759-1.14,1.262-.5,2.02c0,0-8.452,1.891-8.327-1.262a10.447,10.447,0,0,0,1.139-4.162c0-2.017.379-13.121.379-13.121l3.025-28.384Z" transform="translate(-688.043 -481.527)"/><path class="k" d="M900.782,592.157s-3.532,20.943-3.418,27.632,1.891,10.469,1.891,10.469l9.463,12.867a2.23,2.23,0,0,0,.251,2.145,5,5,0,0,1,1.011,2.775c0,.755,1.513,1.262,2.017,2.279s1.892,3.911,5.173,1.641,4.415-3.153,3.783-4.92-2.017-2.9-2.142-3.783-2.891-3.04-3.27-5.575-6.811-12.867-6.811-12.867,6.432-12.867,6.686-15.263a7.453,7.453,0,0,1,1.008-3.418s3.911-7.444,1.766-10.848S900.782,592.157,900.782,592.157Z" transform="translate(-672.5 -442.139)"/><path class="k" d="M892.817,810.819s-3.418-.5-3.418-2.4l-4.669,2.649s-9.21.379-5.3,3.532,21.08-1.008,21.08-1.008-1.259-4.153-2.524-4.541A8.412,8.412,0,0,1,892.817,810.819Z" transform="translate(-658.986 -596.8)"/><path class="h" d="M892.817,810.819s-3.418-.5-3.418-2.4l-4.669,2.649s-9.21.379-5.3,3.532,21.08-1.008,21.08-1.008-1.259-4.153-2.524-4.541A8.412,8.412,0,0,1,892.817,810.819Z" transform="translate(-658.986 -596.8)"/><path class="k" d="M938.761,793.22s-3.669,5.173-6.939,3.786c0,0-1.9-1.94-2.589-.855s-2.2,4.122-3.843,4.5-7.444,2.279-1.766,3.786,16.4-3.532,17.408-5.552S938.761,793.22,938.761,793.22Z" transform="translate(-689.538 -585.93)"/><path class="g" d="M896.608,446.9a9.642,9.642,0,0,1,1.051,1.934,3.134,3.134,0,0,1,.051,2.159c-.122.322-.319.612-.447.932a3.134,3.134,0,0,0,.068,2.313,5.7,5.7,0,0,0,1.376,1.911,1.186,1.186,0,0,0,.632.382,1.026,1.026,0,0,0,.875-.473,6.062,6.062,0,0,0,.877-2.584,3.357,3.357,0,0,1,1.322-2.324,3.734,3.734,0,0,1,1.4-.373l1.792-.231a1.578,1.578,0,0,0,.923-.328c.362-.35,1.288.763.989.359a17.86,17.86,0,0,0-2.2-2.621,2.743,2.743,0,0,1-1.156-.94,2.975,2.975,0,0,1-.285-1.4,5.3,5.3,0,0,0-.607-2.626,3.8,3.8,0,0,0-2.293-1.535,11.268,11.268,0,0,0-2.806-.254,4.557,4.557,0,0,0-1.758.216,1.977,1.977,0,0,0-.892.689,2.708,2.708,0,0,0-.57,2.233A16.98,16.98,0,0,0,896.608,446.9Z" transform="translate(-670.711 -334.179)"/><circle class="g" cx="7.315" cy="7.315" r="7.315" transform="translate(221.217 97.29)"/><path class="a" d="M908.693,471.375a4.883,4.883,0,0,0-4.928-2.755c-2.094.228-4.39.783-4.66,2.125-.5,2.524-1.387,5.3-1.387,3.153s-.048-3.666-.048-3.666-1.968-1.632-2.347-.624a29.958,29.958,0,0,0-.632,7.691c.125,2.772.254,11.352.254,11.352s.254,8.58,1.008,10.85a11.154,11.154,0,0,1,.379,4.666s-1.008,1.011,1.387,1.387,3.661-1.766,7.569.883,12.491,4.036,12.867,2.279-2.4-9.084-1.638-14.508S908.693,471.375,908.693,471.375Z" transform="translate(-670.571 -353.777)"/><path class="g" d="M907.109,590.85s-1.891,3.025-2.521,3.153-.883,1.387.63.755,1.008-.63,1.008-.63-1.262,2.02.883,2.4,3.282.635,3.282-.5-.254-4.162-.254-4.162Z" transform="translate(-677.314 -441.208)"/><path class="h" d="M911.8,475.3a7.8,7.8,0,0,0-.883,7.822c1.891,4.541,6.307,12.488,6.307,12.488s2.017,1.139,1.14,2.017-1.008.632-1.638,1.387-5.048,6.31-5.048,6.31-2.521,1.513-1.766,3.279,3.786,2.524,3.786,2.524a2.174,2.174,0,0,1,2.279-1.387c1.766.125,4.92-2.524,4.92-2.524s4.92-8.452,5.412-9.335,1.139-1.139.253-3.418-7.327-18.405-10.1-19.163A7.891,7.891,0,0,0,911.8,475.3Z" transform="translate(-681.378 -358.336)"/><path class="a" d="M913.572,474.4a7.811,7.811,0,0,0-.883,7.822c1.891,4.541,6.307,12.488,6.307,12.488s2.02,1.139,1.14,2.02-1.011.63-1.641,1.387-5.045,6.307-5.045,6.307-2.524,1.513-1.766,3.279,3.78,2.515,3.78,2.515a2.177,2.177,0,0,1,2.279-1.387c1.766.125,4.92-2.524,4.92-2.524s4.92-8.452,5.427-9.335,1.139-1.139.251-3.4-7.315-18.419-10.093-19.177A7.867,7.867,0,0,0,913.572,474.4Z" transform="translate(-682.641 -357.684)"/><circle class="j" cx="7.632" cy="7.632" r="7.632" transform="translate(225.066 95.207)"/><ellipse class="j" cx="2.461" cy="3.911" rx="2.461" ry="3.911" transform="translate(233.281 94.972) rotate(-42.44)"/><ellipse class="j" cx="5.424" cy="2.524" rx="5.424" ry="2.524" transform="translate(220.272 96.216)"/><ellipse class="g" cx="1.137" cy="1.703" rx="1.137" ry="1.703" transform="translate(225.695 104.542)"/><rect class="b" width="81.471" height="0.285" transform="translate(198.835 218.75)"/><path class="l" d="M343.9,388.746c-1.741.661-5.788.735-7.583.732h-.886l-1.154-2.344,1.154-1.957s1.054-.285,2.461-.544c2.074-.373,4.911-.667,6.267.174C346.424,386.183,346.165,387.872,343.9,388.746Z" transform="translate(-269.821 -293.471)"/><path class="h" d="M336.32,390.356h-.886l-1.154-2.344,1.154-1.957s1.054-.285,2.461-.544C336.764,386.345,334.015,388.159,336.32,390.356Z" transform="translate(-269.821 -294.362)"/><path class="f" d="M269.7,299.9l.51-.584s2.618,4.145,2.894,5.7.624,3.364.624,3.364.667,2.034,1.1,2.934a9.521,9.521,0,0,1,.855,2.151,1.876,1.876,0,0,0,.664,1.8,3.35,3.35,0,0,1,1.017,2.034s2.974,2.894,4.538,2.974,6.062.855,5.905,1.641,1.877,1.253,2.7,1.447-5.279,2.544-1.709,5.555c0,0-2.279.47-2.5,1.017s-2.618-.313-2.618-.313a2.484,2.484,0,0,0-2.279-1.29,3.493,3.493,0,0,1-2.658-.977A9.847,9.847,0,0,0,276,325.98c-.977-.273-2.279-.39-2.31-.664s-5.865-25.424-5.865-25.424Z" transform="translate(-222.293 -232.724)"/><path class="m" d="M269.7,299.9l.51-.584s2.618,4.145,2.894,5.7.624,3.364.624,3.364.667,2.034,1.1,2.934a9.521,9.521,0,0,1,.855,2.151,1.876,1.876,0,0,0,.664,1.8,3.35,3.35,0,0,1,1.017,2.034s2.974,2.894,4.538,2.974,6.062.855,5.905,1.641,1.877,1.253,2.7,1.447-5.279,2.544-1.709,5.555c0,0-2.279.47-2.5,1.017s-2.618-.313-2.618-.313a2.484,2.484,0,0,0-2.279-1.29,3.493,3.493,0,0,1-2.658-.977A9.847,9.847,0,0,0,276,325.98c-.977-.273-2.279-.39-2.31-.664s-5.865-25.424-5.865-25.424Z" transform="translate(-222.293 -232.724)"/><path class="f" d="M238.2,451.661H226.119a6.122,6.122,0,0,1-1.031-2.618,5.032,5.032,0,0,0-.12-2.228s-.376-.649-.832-1.424c-.555-.951-1.228-2.094-1.456-2.45a32.007,32.007,0,0,1-1.367-3.487c-.165-.47-.285-.795-.285-.795s-.47,8.623-.88,9.5a19.688,19.688,0,0,0-.57,3.5h-9.486a3.377,3.377,0,0,0-.254-.8c-.439-.855.439-3.786.439-3.786s-.855-5.7-.82-6.569a19.4,19.4,0,0,0-.732-3.492s-.763-1.347-.587-1.76-.587-1.464-.382-1.934a5.2,5.2,0,0,0-.57-2.757,16.931,16.931,0,0,1-.627-2.7c-.023-.12-.043-.236-.063-.35-.145-.855-.248-1.553-.248-1.553l1.544-1.245.066-.054,3.23-2.6,4.4-1.154.268-.071,7.406-1.943,3.171-1.02.889-.285.507-.165,4.43,6.979s.379.6.752,1.347l.111.225a4.683,4.683,0,0,1,.6,2.037,2.806,2.806,0,0,0,.41,1.826s2.641,8.361,2.581,10.768a54,54,0,0,0,.94,7.691A14.078,14.078,0,0,1,238.2,451.661Z" transform="translate(-178.262 -317.182)"/><path class="l" d="M226.492,265.851c-.188-.077-12.947-5.347-11.189-6.392,1.043-.624,2.324-3.256,3.2-5.318.615-1.441,1.031-2.6,1.031-2.6s10.241-1.817,6.575,4.461a11.553,11.553,0,0,0-1.29,3.091A6.913,6.913,0,0,0,226.492,265.851Z" transform="translate(-184.617 -198.378)"/><path class="h" d="M234.556,256a11.554,11.554,0,0,0-1.29,3.091,7.156,7.156,0,0,1-6.048-4.25,6.9,6.9,0,0,1-.268-.7c.615-1.441,1.031-2.6,1.031-2.6S238.222,249.719,234.556,256Z" transform="translate(-193.065 -198.378)"/><path class="l" d="M240.084,234.821a7.153,7.153,0,1,1-.285-1.994A7.153,7.153,0,0,1,240.084,234.821Z" transform="translate(-192.227 -181.486)"/><path class="h" d="M233.053,426.01a4.393,4.393,0,0,0-1.04,1.977s-3.518,2.407-3.284.88-1.817-7.691-1.817-7.691l.234,8.409s-11.264-.527-12.084-1.347-5.632-2.407-5.632-2.407-1.473,1.182-2.829,2.079c-.179-1.011-.311-1.9-.311-1.9l4.843-3.9,12.084-3.168,4.558-1.467,4.43,6.982Q232.667,425.209,233.053,426.01Z" transform="translate(-178.291 -317.218)"/><path class="i" d="M228.808,319.9a3.938,3.938,0,0,0-1.29,2.171s-3.521,2.407-3.287.88-1.817-7.691-1.817-7.691l.234,8.389s-11.264-.527-12.084-1.347-5.632-2.407-5.632-2.407-4.165,3.344-4.928,3.051,1.347-5.982,1.347-5.982l2.171-33.329s-.584-9.913.285-10.255a1.21,1.21,0,0,0,.37-.231,3.785,3.785,0,0,0,.8-2.467c.06-1.057,1.467-.53,1.467-.53l-.82,1.057,7.27,4.421.063.037a8.364,8.364,0,0,1,.875-.4,3.163,3.163,0,0,1,2.06-.248,1.977,1.977,0,0,1,.769.692,8.685,8.685,0,0,1,.991,1.994l2.638,4.458s1.35,5.925,1.35,6.162.41,5.632.88,6.219a9.785,9.785,0,0,1,.763,4.4,24.034,24.034,0,0,0,.285,4.165c1.934,1.584,2.931,6.982,2.931,6.982s3.051,6.042,3.287,6.748A3.189,3.189,0,0,1,228.808,319.9Z" transform="translate(-173.675 -211.77)"/><path class="h" d="M223.82,276.452a15.016,15.016,0,0,1-2.772,2.541L215.1,273.97a3.785,3.785,0,0,0,.8-2.467c.06-1.057,1.467-.527,1.467-.527l-.171.219a.946.946,0,0,0,.256,1.387Z" transform="translate(-184.591 -212.36)"/><path class="i" d="M223.82,275.628a15.126,15.126,0,0,1-2.772,2.541l-5.948-5.022a3.785,3.785,0,0,0,.8-2.467c.06-1.057,1.467-.53,1.467-.53l-.171.219a.946.946,0,0,0,.256,1.387Z" transform="translate(-184.591 -211.77)"/><path class="h" d="M248.08,290.176c-.769.92-1.854,1.96-1.806,1.424a4.511,4.511,0,0,0-1.094-2.191,3.239,3.239,0,0,1,2.131.06A1.977,1.977,0,0,1,248.08,290.176Z" transform="translate(-206.102 -225.528)"/><path class="i" d="M248.669,289.268c-.766.917-1.854,1.96-1.806,1.439s-.57-1.367-1.023-1.883a3.165,3.165,0,0,1,2.06-.251A1.969,1.969,0,0,1,248.669,289.268Z" transform="translate(-206.574 -224.971)"/><circle class="f" cx="0.47" cy="0.47" r="0.47" transform="translate(39.702 68.236)"/><circle class="f" cx="0.47" cy="0.47" r="0.47" transform="translate(43.26 80.907)"/><circle class="f" cx="0.47" cy="0.47" r="0.47" transform="translate(47.29 93.735)"/><circle class="f" cx="0.47" cy="0.47" r="0.47" transform="translate(47.407 107.699)"/><circle class="f" cx="0.47" cy="0.47" r="0.47" transform="translate(41.775 74.219)"/><circle class="f" cx="0.47" cy="0.47" r="0.47" transform="translate(44.943 87.243)"/><circle class="f" cx="0.47" cy="0.47" r="0.47" transform="translate(48.034 100.033)"/><circle class="f" cx="0.47" cy="0.47" r="0.47" transform="translate(47.327 109.263)"/><path class="h" d="M191.1,281.487s.077-.706-.94.507a12.5,12.5,0,0,1-2.931,2.279s-4.341,3.051-4.578,4.461-1.641,7.509-.9,9.543,6.415,11.771,6.415,11.771a5.27,5.27,0,0,0-1.139,3.834c.348,2.074.783,4.928.587,5.552s.234,2.191-.43,2.738-1.37,1.487.7,2.74c0,0,.39,1.054.04,1.29s5.2,2.658,7.392,1.367,6.139-11.617,6.219-13.924a54.583,54.583,0,0,0-1.923-11.739c-.715-1.8-2.817-8.8-3.7-10.363S191.1,281.487,191.1,281.487Z" transform="translate(-160.591 -219.825)"/><path class="m" d="M190.278,281.487s.08-.706-.937.507a12.485,12.485,0,0,1-2.934,2.279s-4.341,3.051-4.575,4.461-1.644,7.509-.9,9.543,6.418,11.765,6.418,11.765a5.27,5.27,0,0,0-1.139,3.834c.348,2.074.781,4.928.587,5.552s.234,2.191-.43,2.738-1.37,1.487.7,2.74c0,0,.39,1.054.037,1.29s5.2,2.658,7.406,1.367,6.142-11.617,6.219-13.924a55.427,55.427,0,0,0-1.914-11.734c-.7-1.8-2.817-8.8-3.717-10.363S190.278,281.487,190.278,281.487Z" transform="translate(-160.003 -219.825)"/><path class="h" d="M208.79,305.36s3.364,3.7,3.247,6.179A7.859,7.859,0,0,0,208.79,305.36Z" transform="translate(-180.079 -237.044)"/><path class="h" d="M225.13,326.77c0,.12,2.279,8.566,2.151,9.623a19.91,19.91,0,0,0,.661,4.185l1.054-.285s-.82-4.341-.977-5.945S225.13,326.77,225.13,326.77Z" transform="translate(-191.764 -252.355)"/><path class="h" d="M217.909,411.35c-.08.117-5.358,6.1-3.871,6.532S217.909,411.35,217.909,411.35Z" transform="translate(-183.642 -312.841)"/><path class="h" d="M207.107,406c-.117.08-2.111,4.3-2.347,3.171s1.709,3.088,2.034-.04Z" transform="translate(-177.182 -309.015)"/><path class="h" d="M248.4,286.037s2.182-1.333,4.92,2.085c0,0,1.994,1.139,2.581,1.407s1.251,7.549,1.251,7.549,1.29,3.134.94,4.928,1.017,7.976,1.017,7.976,2.279,11.11,2.191,11.42-2.307-3.481-2.279-5.358-1.877-7.743-2.151-8.1-2.151-10.4-2.151-10.4a37.122,37.122,0,0,0-2.5-5.672c-.98-1.4-2.188-4.068-2.7-4.538a5.151,5.151,0,0,0-1.214-.781Z" transform="translate(-208.334 -223.042)"/><path class="m" d="M248.361,286.04s2.444-1.327,5.182,2.074c0,0,1.994,1.139,2.581,1.407s1.253,7.549,1.253,7.549,1.29,3.134.937,4.928,1.017,7.976,1.017,7.976,2.279,11.11,2.191,11.42-2.307-3.481-2.279-5.358-1.877-7.743-2.151-8.1-2.154-10.4-2.154-10.4a37.325,37.325,0,0,0-2.5-5.672c-.977-1.4-2.191-4.068-2.7-4.538a4.843,4.843,0,0,0-1.447-.781Z" transform="translate(-208.326 -223.045)"/><path class="l" d="M286.23,367.567s4.655-3.048,6.9-1.544,5.925,3.638,2.307,5.182-8.623,1.253-8.623,1.253Z" transform="translate(-235.459 -280.128)"/><path class="h" d="M263.628,468.3c-.7,1.49-1.265,8.965-1.655,11.335-.555-.951-1.228-2.091-1.456-2.447a32.019,32.019,0,0,1-1.367-3.487c.442-1.074,1.666-4.153,1.666-5.284,0-1.379,2.231-3.108,2.231-3.108A2.587,2.587,0,0,1,263.628,468.3Z" transform="translate(-216.093 -351.43)"/><path class="h" d="M239.755,232.8a1.761,1.761,0,0,1-.348.145,2.166,2.166,0,0,1-1.578-.518c-.49-.3-1.162-.516-1.584-.131-.553.5-.154,1.57-.721,2.054-.362.308-.931.2-1.333.456a1.9,1.9,0,0,0-.621,1.279c-.1.479-.3,1.017-.769,1.157s-.9-.165-1.359-.148a.415.415,0,0,1-.285-.054.3.3,0,0,1-.046-.214,4.527,4.527,0,0,0-.148-1.709A1.618,1.618,0,0,0,229.774,234c-.826-.128-1.518.593-1.994,1.27a20.983,20.983,0,0,0-1.387,2.233c-.02.04-.043.094-.068.157a7.159,7.159,0,1,1,13.431-4.863Z" transform="translate(-192.183 -181.446)"/><path class="f" d="M223.592,224.963c.484-.678,1.176-1.4,1.994-1.271a1.624,1.624,0,0,1,1.191,1.114,4.527,4.527,0,0,1,.148,1.709.285.285,0,0,0,.048.214c.063.068.174.057.268.054.459-.017.917.285,1.359.148s.667-.681.769-1.159a1.858,1.858,0,0,1,.621-1.276c.413-.259.971-.148,1.333-.456.57-.484.165-1.555.718-2.057.424-.382,1.1-.162,1.587.134a2.162,2.162,0,0,0,1.578.518,5.485,5.485,0,0,0,.536-.228c.869-.33,1.994.231,2.712-.365a2.091,2.091,0,0,0,.541-.937,5.982,5.982,0,0,0,.4-1.5,1.994,1.994,0,0,0-.4-1.456c-.464-.55-1.251-.687-1.846-1.091a4.558,4.558,0,0,1-1.179-1.39,5.167,5.167,0,0,0-1.139-1.424,1.666,1.666,0,0,0-1.709-.271,1.946,1.946,0,0,1-.57.268,1.139,1.139,0,0,1-.621-.171c-2.037-.957-4.4-.789-6.635-.5a8.659,8.659,0,0,0-2.612.632,3.133,3.133,0,0,0-1.763,1.931c-.182.689-.043,1.424-.262,2.117-.148.461-.453.855-.627,1.308-.476,1.236.094,2.6.336,3.9.262,1.424.128,2.965.735,4.31.12.265.251.729.55.553.222-.128.436-.88.57-1.114a21.457,21.457,0,0,1,1.373-2.245Z" transform="translate(-187.984 -171.243)"/><path class="h" d="M185.137,317.686,184.08,320.7s2.5,9.309,3.678,11.264,2.894,4.461,2.894,4.461a10.722,10.722,0,0,0,6.267.781c3.364-.664,13.181-2.424,13.181-2.424a1.307,1.307,0,0,0,1.253-.47c.43-.627,2.658-.937,2.658-.937s2.581-3.755-.587-5.321c0,0-.39.855-2.071.285s-2.191.467-2.191.467a17.744,17.744,0,0,1-4.273.353c-1.535-.2-5.318-.285-5.7-.587a.5.5,0,0,0-.706.04,4.311,4.311,0,0,1-1.251-.7c-.313-.35-.743.39-.743.39s-.547-.313-.39-.7-.51-1.877-.51-1.877a3.843,3.843,0,0,1-.117-1.76c.2-.783-.977-3.6-.977-3.6a4.911,4.911,0,0,1,.157-1.41c.2-.7-1.487-2.111-1.487-2.111s-1.641-7.976-5.128-5.358A6.825,6.825,0,0,0,185.137,317.686Z" transform="translate(-162.407 -241.04)"/><path class="m" d="M184.354,317.686,183.3,320.7s2.5,9.309,3.675,11.264,2.894,4.461,2.894,4.461a10.731,10.731,0,0,0,6.267.781c3.364-.664,13.181-2.424,13.181-2.424a1.3,1.3,0,0,0,1.251-.47c.43-.627,2.661-.937,2.661-.937s2.581-3.755-.587-5.321c0,0-.39.855-2.074.285s-2.191.467-2.191.467a17.744,17.744,0,0,1-4.273.353c-1.535-.2-5.318-.285-5.712-.587a.5.5,0,0,0-.7.04,4.311,4.311,0,0,1-1.251-.7c-.313-.35-.743.39-.743.39s-.547-.313-.39-.7-.51-1.877-.51-1.877a3.8,3.8,0,0,1-.117-1.76c.2-.783-.977-3.6-.977-3.6a4.911,4.911,0,0,1,.157-1.41c.194-.7-1.487-2.111-1.487-2.111s-1.644-7.976-5.128-5.358A6.8,6.8,0,0,0,184.354,317.686Z" transform="translate(-161.85 -241.04)"/><path class="h" d="M274.565,378.81c-.04.285-.9,1.37-.587,1.564s.82.08.35.7-.43,1.567-.117,1.447a3.738,3.738,0,0,0,.82-2.071A6.193,6.193,0,0,0,274.565,378.81Z" transform="translate(-226.648 -289.57)"/><path class="h" d="M228.744,376.61s-.236,2.738-2.151,3.521S228.744,376.61,228.744,376.61Z" transform="translate(-192.444 -287.997)"/><path class="h" d="M216.736,373.32c-.117.04-2.738,1.447-1.564,2.279S216.736,373.32,216.736,373.32Z" transform="translate(-184.427 -285.644)"/><path class="h" d="M213.824,366.45s-3.831.783-2.541,1.447S213.824,366.45,213.824,366.45Z" transform="translate(-181.672 -280.731)"/><g class="n" transform="translate(31.857 47.792)"><path d="M226.777,241.507a1.627,1.627,0,0,0-1.191-1.117c-.826-.125-1.518.6-1.994,1.273a21.459,21.459,0,0,0-1.387,2.233c-.125.234-.339.983-.57,1.114-.285.174-.43-.285-.55-.553-.607-1.347-.473-2.889-.735-4.313a24.569,24.569,0,0,1-.5-2.515,12.066,12.066,0,0,0,.5,3.134c.262,1.424.128,2.965.735,4.31.12.265.251.729.55.553.222-.128.436-.877.57-1.111a20.873,20.873,0,0,1,1.379-2.222c.484-.681,1.176-1.4,1.994-1.273a1.624,1.624,0,0,1,1.191,1.114,3.091,3.091,0,0,1,.157.88A4.042,4.042,0,0,0,226.777,241.507Z" transform="translate(-219.833 -236.399)"/><path d="M256.789,234.7a2.1,2.1,0,0,1-.541.94c-.715.6-1.843.034-2.712.365-.182.068-.348.177-.536.228a2.182,2.182,0,0,1-1.578-.521c-.49-.3-1.162-.516-1.587-.131-.553.5-.151,1.572-.718,2.057-.362.3-.932.2-1.333.453a1.9,1.9,0,0,0-.621,1.279c-.1.476-.3,1.02-.769,1.159s-.9-.168-1.359-.151c-.094,0-.205.017-.268-.054a.168.168,0,0,1-.034-.057c0,.157,0,.313-.014.47a.285.285,0,0,0,.048.214c.063.068.174.057.268.054.459-.017.917.285,1.359.151s.667-.684.769-1.159a1.871,1.871,0,0,1,.621-1.279c.413-.259.971-.148,1.333-.456.57-.481.165-1.555.718-2.054.424-.385,1.1-.165,1.587.131a2.163,2.163,0,0,0,1.578.518,5.463,5.463,0,0,0,.536-.225c.869-.333,1.994.231,2.712-.367a2.077,2.077,0,0,0,.541-.937,5.984,5.984,0,0,0,.4-1.5,2.7,2.7,0,0,0,0-.524A6.443,6.443,0,0,1,256.789,234.7Z" transform="translate(-237.627 -233.31)"/></g></svg>